<svg width="69" height="34" viewBox="0 0 69 34" fill="none" xmlns="http://www.w3.org/2000/svg">
<path d="M0 17C0 7.61116 7.61116 0 17 0H52C61.3888 0 69 7.61116 69 17C69 26.3888 61.3888 34 52 34H17C7.61116 34 0 26.3888 0 17Z" fill="#F8F3EB"/>
<path d="M19.816 21.156C18.172 21.156 16.924 19.86 16.924 17.616V15.984C16.924 13.74 18.172 12.444 19.816 12.444C21.316 12.444 22.48 13.62 22.552 15.312H21.208C21.088 14.232 20.584 13.644 19.804 13.644C18.868 13.644 18.292 14.412 18.292 16.008V17.592C18.292 19.188 18.868 19.956 19.804 19.956C20.584 19.956 21.076 19.356 21.172 18.276H22.516C22.444 19.956 21.34 21.156 19.816 21.156ZM24.4974 21V12.6H25.8414V19.836H29.8494V21H24.4974ZM34.3628 21.156C32.5868 21.156 31.3268 19.632 31.3268 17.652V15.948C31.3268 13.968 32.5868 12.444 34.3628 12.444C36.1388 12.444 37.3988 13.968 37.3988 15.948V17.652C37.3988 19.632 36.1388 21.156 34.3628 21.156ZM34.3628 19.956C35.4068 19.956 36.0308 19.032 36.0308 17.628V15.972C36.0308 14.568 35.4068 13.644 34.3628 13.644C33.3188 13.644 32.7068 14.568 32.7068 15.972V17.628C32.7068 19.032 33.3188 19.956 34.3628 19.956ZM41.7682 21.156C40.2562 21.156 39.0442 20.184 38.6962 18.684L39.9562 18.336C40.2562 19.452 40.9402 19.98 41.7802 19.98C42.5962 19.98 43.2082 19.476 43.2082 18.66C43.2082 18 42.8122 17.604 42.0682 17.388L41.0482 17.1C39.7162 16.728 38.9962 15.912 38.9962 14.82C38.9962 13.416 40.2202 12.444 41.6962 12.444C43.0402 12.444 44.1082 13.26 44.5282 14.58L43.2922 14.952C43.0042 14.064 42.4282 13.62 41.6842 13.62C40.9522 13.62 40.3522 14.064 40.3522 14.736C40.3522 15.312 40.7722 15.708 41.6002 15.948L42.5602 16.212C43.8442 16.572 44.5882 17.424 44.5882 18.576C44.5882 20.1 43.3402 21.156 41.7682 21.156ZM46.3296 21V12.6H51.5976V13.752H47.6736V16.008H50.4216V17.16H47.6736V19.848H51.8256V21H46.3296Z" fill="black" fill-opacity="0.35"/>
</svg>
