<svg width="19" height="19" viewBox="0 0 19 19" fill="none" xmlns="http://www.w3.org/2000/svg">
<path fill-rule="evenodd" clip-rule="evenodd" d="M2.85991 10.8287C1.43036 12.2583 1.46112 14.5963 2.95401 15.986C4.4469 17.3758 6.61295 17.2075 7.98648 15.834L9.67116 14.1493C9.92632 13.8942 10.3389 13.8942 10.5922 14.1493L10.9505 14.5076C11.2057 14.7628 11.2057 15.1754 10.9505 15.4287L9.28393 17.0953C7.20656 19.1727 3.82088 19.2993 1.6874 17.2799C-0.525681 15.1844 -0.561861 11.6901 1.57883 9.54947L3.32506 7.80324C3.58021 7.54809 3.99278 7.54809 4.24613 7.80324L4.60443 8.16154C4.85958 8.41669 4.85958 8.82926 4.60443 9.08261L2.8582 10.8288L2.85991 10.8287ZM10.8581 2.83055L9.11185 4.57678C8.8567 4.83193 8.44413 4.83193 8.19078 4.57678L7.83248 4.21848C7.57733 3.96332 7.57733 3.55076 7.83248 3.29741L9.49908 1.63081C11.5765 -0.446563 14.9621 -0.573214 17.0956 1.44624C19.2291 3.46571 19.3449 7.03599 17.2042 9.1785L15.458 10.9247C15.2028 11.1799 14.7902 11.1799 14.5369 10.9247L14.1786 10.5664C13.9234 10.3113 13.9234 9.89871 14.1786 9.64536L15.8633 7.96067C17.2367 6.58722 17.3381 4.34875 16.0153 2.92821C14.6255 1.43533 12.2875 1.40457 10.858 2.83411L10.8581 2.83055Z" fill="#48441D"/>
<path fill-rule="evenodd" clip-rule="evenodd" d="M4.71285 13.6862C4.4577 13.431 4.4577 13.0184 4.71285 12.7651L12.7944 4.68355C13.0496 4.4284 13.4621 4.4284 13.7155 4.68355L14.0738 5.04185C14.3289 5.29701 14.3289 5.70957 14.0738 5.96292L5.99222 14.0445C5.73706 14.2996 5.3245 14.2996 5.07115 14.0445L4.71285 13.6862Z" fill="#48441D"/>
</svg>
