<svg width="166" height="23" viewBox="0 0 166 23" fill="none" xmlns="http://www.w3.org/2000/svg">
<path d="M72.4752 0.37207C72.6253 0.37207 72.7719 0.48291 72.7719 0.633079V19.1646C72.7719 21.2455 71.1025 22.9152 69.0221 22.9152C66.9416 22.9152 65.2722 21.2419 65.2722 19.1646V0.668833C65.2722 0.518664 65.4224 0.37207 65.5689 0.37207H67.6851C67.8353 0.37207 67.9818 0.48291 67.9818 0.633079V18.9429C67.9818 19.5007 68.4287 20.0191 68.9827 20.0191C69.5761 20.0191 70.0587 19.5722 70.0587 18.9787V0.633079C70.0587 0.48291 70.2089 0.37207 70.3554 0.37207H72.4716H72.4752Z" fill="#48441D"/>
<path d="M82.9437 22.2465C82.9437 22.3967 82.8328 22.5433 82.6827 22.5433H80.4914C80.3413 22.5433 80.2305 22.4682 80.1947 22.2823L78.4503 14.4092C78.4145 14.2232 78.1536 14.2983 78.1536 14.4449V22.243C78.1536 22.3931 78.0428 22.5397 77.8926 22.5397H75.7407C75.5905 22.5397 75.444 22.3896 75.444 22.243V0.629417C75.444 0.479248 75.5941 0.368408 75.7407 0.368408H77.8926C78.0428 0.368408 78.1536 0.443494 78.1893 0.629417L79.9338 8.65271C79.9695 8.80288 80.2305 8.76355 80.2305 8.61695V0.632993C80.2305 0.482824 80.3806 0.371984 80.5272 0.371984H82.6434C82.7935 0.371984 82.9401 0.482824 82.9401 0.632993V22.2465H82.9437Z" fill="#48441D"/>
<path d="M89.7763 0.37207C91.6708 0.37207 93.1937 1.89521 93.1937 3.79019V19.1288C93.1937 21.0238 91.6708 22.547 89.7763 22.547H85.9907C85.769 22.547 85.6189 22.3968 85.6189 22.1751V0.747493C85.6189 0.525815 85.769 0.375647 85.9907 0.375647H89.7763V0.37207ZM90.484 4.19779C90.484 3.49343 90.0765 3.12159 89.3687 3.12159H88.8111C88.5895 3.12159 88.4393 3.23242 88.4393 3.49343V19.944C88.4393 20.1657 88.5895 20.3159 88.8111 20.3159H89.3687C90.073 20.3159 90.484 19.944 90.484 19.2397V4.19779Z" fill="#48441D"/>
<path d="M95.8664 0.633079C95.8664 0.48291 96.0166 0.37207 96.1631 0.37207H101.768C101.918 0.37207 102.065 0.48291 102.065 0.633079V2.78549C102.065 2.93566 101.954 3.08226 101.804 3.08226H98.9085C98.7583 3.08226 98.6475 3.19309 98.6475 3.34326V11.1055C98.6475 11.2557 98.7583 11.4023 98.9085 11.4023H101.06C101.211 11.4023 101.357 11.5131 101.357 11.6633V13.8551C101.357 14.0052 101.246 14.1161 101.096 14.1161H98.9049C98.7548 14.1161 98.644 14.2662 98.644 14.4128V19.5758C98.644 19.7259 98.7548 19.8368 98.9049 19.8368H101.8C101.951 19.8368 102.061 19.9869 102.061 20.1335V22.286C102.061 22.4361 101.911 22.547 101.765 22.547H96.1596C96.0094 22.547 95.8629 22.4361 95.8629 22.286V0.636652L95.8664 0.633079Z" fill="#48441D"/>
<path d="M112.241 10.1008C112.241 10.8803 111.905 11.5846 111.422 12.0673C111.272 12.1782 111.272 12.289 111.386 12.4392C111.905 13.1435 112.241 14.7418 112.241 15.5212V22.243C112.241 22.3932 112.09 22.5398 111.944 22.5398H109.792C109.642 22.5398 109.531 22.429 109.531 22.2788V15.5212C109.495 14.5201 108.752 13.1078 107.747 12.8861C107.561 12.8504 107.451 12.9612 107.451 13.1471V22.2466C107.451 22.3968 107.34 22.5434 107.19 22.5434H105.038C104.887 22.5434 104.741 22.3932 104.741 22.2466V0.633079C104.741 0.48291 104.891 0.37207 105.038 0.37207H109.531C110.943 0.37207 112.241 1.55912 112.241 3.12158V10.1044V10.1008ZM109.531 3.90103C109.531 3.30751 109.013 2.78549 108.38 2.78549H107.747C107.597 2.78549 107.451 2.93566 107.451 3.08225V10.5084C107.451 10.6586 107.601 10.8052 107.747 10.8052H108.38C109.013 10.8052 109.495 10.2868 109.531 9.65391V3.89745V3.90103Z" fill="#48441D"/>
<path d="M114.244 0.668832C114.208 0.48291 114.319 0.37207 114.505 0.37207H116.696C116.846 0.37207 116.993 0.48291 116.993 0.633079L117.811 10.1402H118.108L118.927 0.633079C118.927 0.48291 119.077 0.37207 119.223 0.37207H121.45C121.601 0.37207 121.747 0.48291 121.747 0.633079L122.566 10.1402H122.862L123.681 0.633079C123.681 0.48291 123.831 0.37207 123.978 0.37207H126.169C126.355 0.37207 126.466 0.48291 126.43 0.668832L124.092 22.2824C124.092 22.4325 123.942 22.5434 123.795 22.5434H121.643C121.493 22.5434 121.347 22.4325 121.347 22.2824L120.346 13.0363L119.345 22.2824C119.345 22.4325 119.195 22.5434 119.048 22.5434H116.896C116.746 22.5434 116.6 22.4325 116.6 22.2824L114.262 0.668832H114.244Z" fill="#48441D"/>
<path d="M135.93 3.75064V19.1608C135.93 21.2417 134.261 22.9114 132.18 22.9114C130.1 22.9114 128.43 21.2417 128.43 19.1608V3.75064C128.43 1.66973 130.1 0 132.18 0C134.261 0 135.93 1.66973 135.93 3.75064ZM133.22 3.75064C133.22 3.19287 132.738 2.71018 132.18 2.71018C131.623 2.71018 131.14 3.19287 131.14 3.75064V18.9784C131.14 19.572 131.623 20.0189 132.18 20.0189C132.738 20.0189 133.22 19.572 133.22 18.9784V3.75064Z" fill="#48441D"/>
<path d="M146.102 10.1008C146.102 10.8803 145.766 11.5846 145.283 12.0673C145.133 12.1782 145.133 12.289 145.248 12.4392C145.766 13.1435 146.102 14.7418 146.102 15.5212V22.243C146.102 22.3932 145.952 22.5398 145.805 22.5398H143.653C143.503 22.5398 143.392 22.429 143.392 22.2788V15.5212C143.357 14.5201 142.613 13.1078 141.609 12.8861C141.423 12.8504 141.312 12.9612 141.312 13.1471V22.2466C141.312 22.3968 141.201 22.5434 141.051 22.5434H138.899C138.749 22.5434 138.602 22.3932 138.602 22.2466V0.633079C138.602 0.48291 138.752 0.37207 138.899 0.37207H143.392C144.804 0.37207 146.102 1.55912 146.102 3.12158V10.1044V10.1008ZM143.392 3.90103C143.392 3.30751 142.874 2.78549 142.241 2.78549H141.609C141.459 2.78549 141.312 2.93566 141.312 3.08225V10.5084C141.312 10.6586 141.462 10.8052 141.609 10.8052H142.241C142.874 10.8052 143.357 10.2868 143.392 9.65391V3.89745V3.90103Z" fill="#48441D"/>
<path d="M149.074 22.5434C148.924 22.5434 148.777 22.3932 148.777 22.2466V0.633079C148.777 0.48291 148.927 0.37207 149.074 0.37207H151.19C151.34 0.37207 151.487 0.48291 151.487 0.633079V19.4614C151.487 19.6115 151.637 19.7224 151.783 19.7224H156.016C156.166 19.7224 156.277 19.8332 156.277 19.9834V22.286C156.277 22.4361 156.166 22.547 156.016 22.547H149.074V22.5434Z" fill="#48441D"/>
<path d="M162.443 0.37207C164.338 0.37207 165.86 1.89521 165.86 3.79019V19.1288C165.86 21.0238 164.338 22.547 162.443 22.547H158.657C158.436 22.547 158.286 22.3968 158.286 22.1751V0.747493C158.286 0.525815 158.436 0.375647 158.657 0.375647H162.443V0.37207ZM163.147 4.19779C163.147 3.49343 162.74 3.12159 162.032 3.12159H161.474C161.253 3.12159 161.102 3.23242 161.102 3.49343V19.944C161.102 20.1657 161.253 20.3159 161.474 20.3159H162.032C162.736 20.3159 163.147 19.944 163.147 19.2397V4.19779Z" fill="#48441D"/>
<path d="M1.12798 22.5434C0.942095 22.5434 0.83128 22.4325 0.867026 22.2466L3.69103 0.633077C3.72678 0.482909 3.84116 0.37207 3.98773 0.37207H6.17901C6.32915 0.37207 6.43996 0.482909 6.47571 0.633077L9.29613 22.2466C9.33188 22.4325 9.22107 22.5434 9.03518 22.5434H6.69734C6.5472 22.5434 6.40064 22.4325 6.40064 22.2824L6.13969 19.9047C6.13969 19.7545 5.98955 19.6437 5.84299 19.6437H4.32017C4.17004 19.6437 4.02347 19.7545 4.02347 19.9047L3.76252 22.2824C3.76252 22.4325 3.61238 22.5434 3.46582 22.5434H1.12798ZM4.47031 16.6367C4.43456 16.8227 4.54538 16.9335 4.73126 16.9335H5.4748C5.66068 16.9335 5.7715 16.8227 5.73575 16.6367L5.25317 12.7359C5.21742 12.5143 4.99221 12.5143 4.95647 12.7359L4.47388 16.6367H4.47031Z" fill="#48441D"/>
<path d="M23.4053 0.37207C23.5554 0.37207 23.6663 0.482909 23.6663 0.633077V22.2824C23.6663 22.4325 23.5554 22.5434 23.4053 22.5434H21.214C21.0639 22.5434 20.9173 22.3932 20.9173 22.2466V10.8445C20.9173 10.9196 20.6564 10.9554 20.6564 10.8445L18.8726 22.2824C18.8369 22.4325 18.7225 22.5434 18.5759 22.5434H16.3489C16.1987 22.5434 16.0879 22.4325 16.0522 22.2824L14.2684 10.8445C14.2684 10.9554 14.0075 10.9196 14.0075 10.8445V22.2466C14.0075 22.3968 13.8966 22.5434 13.7465 22.5434H11.5946C11.4444 22.5434 11.2979 22.3932 11.2979 22.2466V0.633077C11.2979 0.482909 11.448 0.37207 11.5946 0.37207H15.1585C15.3086 0.37207 15.4195 0.482909 15.4552 0.633077L17.3105 11.3665C17.3462 11.6276 17.5714 11.6276 17.6072 11.3665L19.5018 0.633077C19.5375 0.482909 19.6519 0.37207 19.7984 0.37207H23.4017H23.4053Z" fill="#48441D"/>
<path d="M25.9333 22.5434C25.7475 22.5434 25.6366 22.4325 25.6724 22.2466L28.4928 0.633077C28.5286 0.482909 28.6429 0.37207 28.7895 0.37207H30.9808C31.1309 0.37207 31.2417 0.482909 31.2775 0.633077L34.0979 22.2466C34.1337 22.4325 34.0228 22.5434 33.837 22.5434H31.4991C31.349 22.5434 31.2024 22.4325 31.2024 22.2824L30.9415 19.9047C30.9415 19.7545 30.7913 19.6437 30.6448 19.6437H29.122C28.9718 19.6437 28.8253 19.7545 28.8253 19.9047L28.5643 22.2824C28.5643 22.4325 28.4142 22.5434 28.2676 22.5434H25.9298H25.9333ZM29.2757 16.6367C29.2399 16.8227 29.3507 16.9335 29.5366 16.9335H30.2802C30.466 16.9335 30.5768 16.8227 30.5411 16.6367L30.0585 12.7359C30.0228 12.5143 29.7976 12.5143 29.7618 12.7359L29.2792 16.6367H29.2757Z" fill="#48441D"/>
<path d="M41.6352 2.93566C41.6352 3.0465 41.6352 3.12158 41.5995 3.26818L38.2572 19.4613C38.2214 19.683 38.3322 19.7581 38.5181 19.7581H41.3385C41.4887 19.7581 41.6352 19.9083 41.6352 20.0549V22.2466C41.6352 22.3968 41.5244 22.5434 41.3743 22.5434H35.7299C35.5797 22.5434 35.4332 22.3932 35.4332 22.2466V19.944C35.4332 19.8332 35.4332 19.7581 35.4689 19.6079L38.7362 3.4541C38.7719 3.23242 38.7004 3.15734 38.5145 3.15734H35.7299C35.5797 3.15734 35.4332 3.00717 35.4332 2.86058V0.668832C35.4332 0.518663 35.5833 0.37207 35.7299 0.37207H41.335C41.4851 0.37207 41.6317 0.482909 41.6317 0.633077V2.93566H41.6352Z" fill="#48441D"/>
<path d="M51.1413 3.75064V19.1608C51.1413 21.2417 49.4719 22.9114 47.3914 22.9114C45.311 22.9114 43.6416 21.2417 43.6416 19.1608V3.75064C43.6416 1.66973 45.311 0 47.3914 0C49.4719 0 51.1413 1.66973 51.1413 3.75064ZM48.4317 3.75064C48.4317 3.19287 47.9491 2.71018 47.3914 2.71018C46.8338 2.71018 46.3512 3.19287 46.3512 3.75064V18.9749C46.3512 19.5684 46.8338 20.0153 47.3914 20.0153C47.9491 20.0153 48.4317 19.5684 48.4317 18.9749V3.75064Z" fill="#48441D"/>
<path d="M61.3167 22.2466C61.3167 22.3968 61.2059 22.5434 61.0558 22.5434H58.8645C58.7143 22.5434 58.6035 22.4683 58.5678 22.2824L56.8233 14.4092C56.7876 14.2233 56.5266 14.2984 56.5266 14.445V22.243C56.5266 22.3932 56.4158 22.5398 56.2657 22.5398H54.1137C53.9636 22.5398 53.817 22.3896 53.817 22.243V0.633077C53.817 0.482909 53.9672 0.37207 54.1137 0.37207H56.2657C56.4158 0.37207 56.5266 0.447155 56.5624 0.633077L58.3068 8.65636C58.3426 8.80653 58.6035 8.7672 58.6035 8.62061V0.633077C58.6035 0.482909 58.7537 0.37207 58.9002 0.37207H61.0164C61.1666 0.37207 61.3131 0.482909 61.3131 0.633077V22.2466H61.3167Z" fill="#48441D"/>
</svg>
