<svg width="223" height="31" viewBox="0 0 223 31" fill="none" xmlns="http://www.w3.org/2000/svg">
<path d="M97.2756 0.500977C97.4777 0.500977 97.675 0.650201 97.675 0.852373V25.8014C97.675 28.603 95.4275 30.8509 92.6266 30.8509C89.8256 30.8509 87.5781 28.5982 87.5781 25.8014V0.900509C87.5781 0.698336 87.7803 0.500977 87.9776 0.500977H90.8266C91.0288 0.500977 91.2261 0.650201 91.2261 0.852373V25.503C91.2261 26.2539 91.8277 26.9519 92.5736 26.9519C93.3725 26.9519 94.0222 26.3502 94.0222 25.5511V0.852373C94.0222 0.650201 94.2244 0.500977 94.4217 0.500977H97.2707H97.2756Z" fill="#E9E5E4"/>
<path d="M111.371 29.9497C111.371 30.1519 111.222 30.3493 111.02 30.3493H108.07C107.868 30.3493 107.719 30.2482 107.67 29.9979L105.322 19.3983C105.274 19.1479 104.922 19.249 104.922 19.4464V29.9449C104.922 30.1471 104.773 30.3445 104.571 30.3445H101.674C101.472 30.3445 101.274 30.1423 101.274 29.9449V0.846514C101.274 0.644341 101.477 0.495117 101.674 0.495117H104.571C104.773 0.495117 104.922 0.596205 104.971 0.846514L107.319 11.6483C107.367 11.8505 107.719 11.7975 107.719 11.6002V0.851329C107.719 0.649156 107.921 0.499932 108.118 0.499932H110.967C111.169 0.499932 111.366 0.649156 111.366 0.851329V29.9497H111.371Z" fill="#E9E5E4"/>
<path d="M120.569 0.500977C123.119 0.500977 125.17 2.55158 125.17 5.10281V25.7533C125.17 28.3045 123.119 30.3551 120.569 30.3551H115.472C115.174 30.3551 114.972 30.153 114.972 29.8545V1.00641C114.972 0.707964 115.174 0.505791 115.472 0.505791H120.569V0.500977ZM121.522 5.65156C121.522 4.70328 120.973 4.20266 120.02 4.20266H119.269C118.971 4.20266 118.769 4.35188 118.769 4.70328V26.8508C118.769 27.1492 118.971 27.3514 119.269 27.3514H120.02C120.968 27.3514 121.522 26.8508 121.522 25.9025V5.65156Z" fill="#E9E5E4"/>
<path d="M128.769 0.852373C128.769 0.650201 128.972 0.500977 129.169 0.500977H136.715C136.917 0.500977 137.115 0.650201 137.115 0.852373V3.75018C137.115 3.95235 136.965 4.14971 136.763 4.14971H132.865C132.663 4.14971 132.514 4.29893 132.514 4.5011V14.9515C132.514 15.1537 132.663 15.351 132.865 15.351H135.762C135.964 15.351 136.162 15.5003 136.162 15.7024V18.6532C136.162 18.8554 136.012 19.0046 135.81 19.0046H132.86C132.658 19.0046 132.509 19.2068 132.509 19.4041V26.355C132.509 26.5572 132.658 26.7064 132.86 26.7064H136.758C136.961 26.7064 137.11 26.9086 137.11 27.1059V30.0037C137.11 30.2059 136.908 30.3551 136.71 30.3551H129.164C128.962 30.3551 128.765 30.2059 128.765 30.0037V0.857184L128.769 0.852373Z" fill="#E9E5E4"/>
<path d="M150.811 13.5989C150.811 14.6482 150.358 15.5965 149.709 16.2464C149.507 16.3956 149.507 16.5448 149.661 16.747C150.358 17.6953 150.811 19.847 150.811 20.8963V29.946C150.811 30.1481 150.609 30.3455 150.411 30.3455H147.514C147.312 30.3455 147.163 30.1963 147.163 29.9941V20.8963C147.115 19.5485 146.114 17.6471 144.761 17.3487C144.511 17.3006 144.362 17.4498 144.362 17.7001V29.9508C144.362 30.1529 144.213 30.3503 144.011 30.3503H141.113C140.911 30.3503 140.714 30.1481 140.714 29.9508V0.852373C140.714 0.650201 140.916 0.500977 141.113 0.500977H147.163C149.064 0.500977 150.811 2.0991 150.811 4.20266V13.6037V13.5989ZM147.163 5.25203C147.163 4.45297 146.465 3.75018 145.613 3.75018H144.761C144.559 3.75018 144.362 3.95235 144.362 4.14971V14.1476C144.362 14.3498 144.564 14.5472 144.761 14.5472H145.613C146.465 14.5472 147.115 13.8492 147.163 12.9972V5.24722V5.25203Z" fill="#E9E5E4"/>
<path d="M153.511 0.900509C153.463 0.6502 153.612 0.500977 153.862 0.500977H156.812C157.015 0.500977 157.212 0.650201 157.212 0.852373L158.314 13.6518H158.713L159.815 0.852373C159.815 0.650201 160.018 0.500977 160.215 0.500977H163.213C163.415 0.500977 163.613 0.650201 163.613 0.852373L164.715 13.6518H165.114L166.216 0.852373C166.216 0.650201 166.418 0.500977 166.616 0.500977H169.566C169.816 0.500977 169.965 0.6502 169.917 0.900509L166.77 29.9989C166.77 30.2011 166.568 30.3503 166.37 30.3503H163.473C163.271 30.3503 163.074 30.2011 163.074 29.9989L161.726 17.5509L160.379 29.9989C160.379 30.2011 160.176 30.3503 159.979 30.3503H157.082C156.88 30.3503 156.682 30.2011 156.682 29.9989L153.535 0.900509H153.511Z" fill="#E9E5E4"/>
<path d="M182.704 5.0495V25.7963C182.704 28.5978 180.457 30.8457 177.656 30.8457C174.855 30.8457 172.607 28.5978 172.607 25.7963V5.0495C172.607 2.24796 174.855 0 177.656 0C180.457 0 182.704 2.24796 182.704 5.0495ZM179.056 5.0495C179.056 4.29857 178.407 3.64873 177.656 3.64873C176.905 3.64873 176.255 4.29857 176.255 5.0495V25.5508C176.255 26.3498 176.905 26.9515 177.656 26.9515C178.407 26.9515 179.056 26.3498 179.056 25.5508V5.0495Z" fill="#E9E5E4"/>
<path d="M196.402 13.5989C196.402 14.6482 195.949 15.5965 195.299 16.2464C195.097 16.3956 195.097 16.5448 195.251 16.747C195.949 17.6953 196.402 19.847 196.402 20.8963V29.946C196.402 30.1481 196.199 30.3455 196.002 30.3455H193.105C192.903 30.3455 192.754 30.1963 192.754 29.9941V20.8963C192.705 19.5485 191.704 17.6471 190.352 17.3487C190.102 17.3006 189.953 17.4498 189.953 17.7001V29.9508C189.953 30.1529 189.803 30.3503 189.601 30.3503H186.704C186.502 30.3503 186.305 30.1481 186.305 29.9508V0.852373C186.305 0.650201 186.507 0.500977 186.704 0.500977H192.754C194.655 0.500977 196.402 2.0991 196.402 4.20266V13.6037V13.5989ZM192.754 5.25203C192.754 4.45297 192.056 3.75018 191.204 3.75018H190.352C190.15 3.75018 189.953 3.95235 189.953 4.14971V14.1476C189.953 14.3498 190.155 14.5472 190.352 14.5472H191.204C192.056 14.5472 192.705 13.8492 192.754 12.9972V5.24722V5.25203Z" fill="#E9E5E4"/>
<path d="M200.4 30.3503C200.198 30.3503 200.001 30.1481 200.001 29.9508V0.852373C200.001 0.650201 200.203 0.500977 200.4 0.500977H203.249C203.452 0.500977 203.649 0.650201 203.649 0.852373V26.201C203.649 26.4031 203.851 26.5524 204.048 26.5524H209.747C209.949 26.5524 210.098 26.7016 210.098 26.9037V30.0037C210.098 30.2059 209.949 30.3551 209.747 30.3551H200.4V30.3503Z" fill="#E9E5E4"/>
<path d="M218.4 0.500977C220.95 0.500977 223.001 2.55158 223.001 5.10281V25.7533C223.001 28.3045 220.95 30.3551 218.4 30.3551H213.303C213.005 30.3551 212.803 30.153 212.803 29.8545V1.00641C212.803 0.707964 213.005 0.505791 213.303 0.505791H218.4V0.500977ZM219.348 5.65156C219.348 4.70328 218.799 4.20266 217.846 4.20266H217.096C216.797 4.20266 216.595 4.35188 216.595 4.70328V26.8508C216.595 27.1492 216.797 27.3514 217.096 27.3514H217.846C218.794 27.3514 219.348 26.8508 219.348 25.9025V5.65156Z" fill="#E9E5E4"/>
<path d="M1.22066 30.3503C0.970403 30.3503 0.821212 30.2011 0.869338 29.9508L4.67131 0.852372C4.71944 0.650199 4.87344 0.500977 5.07076 0.500977H8.0209C8.22303 0.500977 8.37222 0.650199 8.42035 0.852372L12.2175 29.9508C12.2656 30.2011 12.1164 30.3503 11.8662 30.3503H8.71873C8.5166 30.3503 8.31928 30.2011 8.31928 29.9989L7.96796 26.7978C7.96796 26.5957 7.76583 26.4465 7.56851 26.4465H5.51833C5.3162 26.4465 5.11889 26.5957 5.11889 26.7978L4.76756 29.9989C4.76756 30.2011 4.56543 30.3503 4.36812 30.3503H1.22066ZM5.72046 22.3982C5.67234 22.6485 5.82153 22.7977 6.07178 22.7977H7.07281C7.32307 22.7977 7.47226 22.6485 7.42413 22.3982L6.77443 17.1465C6.7263 16.8481 6.42311 16.8481 6.37498 17.1465L5.72528 22.3982H5.72046Z" fill="#E9E5E4"/>
<path d="M31.2134 0.500977C31.4156 0.500977 31.5648 0.650199 31.5648 0.852372V29.9989C31.5648 30.2011 31.4156 30.3503 31.2134 30.3503H28.2633C28.0612 30.3503 27.8639 30.1481 27.8639 29.9508V14.6001C27.8639 14.7012 27.5125 14.7493 27.5125 14.6001L25.111 29.9989C25.0629 30.2011 24.9089 30.3503 24.7116 30.3503H21.7133C21.5112 30.3503 21.362 30.2011 21.3139 29.9989L18.9124 14.6001C18.9124 14.7493 18.5611 14.7012 18.5611 14.6001V29.9508C18.5611 30.153 18.4119 30.3503 18.2097 30.3503H15.3125C15.1104 30.3503 14.9131 30.1481 14.9131 29.9508V0.852372C14.9131 0.650199 15.1152 0.500977 15.3125 0.500977H20.1107C20.3129 0.500977 20.462 0.650199 20.5102 0.852372L23.0079 15.3029C23.056 15.6543 23.3592 15.6543 23.4074 15.3029L25.9581 0.852372C26.0062 0.650199 26.1602 0.500977 26.3575 0.500977H31.2086H31.2134Z" fill="#E9E5E4"/>
<path d="M34.6152 30.3503C34.3649 30.3503 34.2157 30.2011 34.2639 29.9508L38.061 0.852372C38.1092 0.650199 38.2632 0.500977 38.4605 0.500977H41.4106C41.6127 0.500977 41.7619 0.650199 41.8101 0.852372L45.6072 29.9508C45.6554 30.2011 45.5062 30.3503 45.2559 30.3503H42.1084C41.9063 30.3503 41.709 30.2011 41.709 29.9989L41.3577 26.7978C41.3577 26.5957 41.1555 26.4465 40.9582 26.4465H38.9081C38.7059 26.4465 38.5086 26.5957 38.5086 26.7978L38.1573 29.9989C38.1573 30.2011 37.9551 30.3503 37.7578 30.3503H34.6104H34.6152ZM39.115 22.3982C39.0669 22.6485 39.2161 22.7977 39.4663 22.7977H40.4673C40.7176 22.7977 40.8668 22.6485 40.8187 22.3982L40.169 17.1465C40.1208 16.8481 39.8176 16.8481 39.7695 17.1465L39.1198 22.3982H39.115Z" fill="#E9E5E4"/>
<path d="M55.7571 3.95235C55.7571 4.10157 55.7571 4.20266 55.709 4.40002L51.2092 26.201C51.1611 26.4994 51.3103 26.6005 51.5605 26.6005H55.3577C55.5598 26.6005 55.7571 26.8027 55.7571 27V29.9508C55.7571 30.153 55.6079 30.3503 55.4058 30.3503H47.8067C47.6045 30.3503 47.4072 30.1481 47.4072 29.9508V26.8508C47.4072 26.7016 47.4072 26.6005 47.4554 26.3983L51.8541 4.65033C51.9022 4.35188 51.806 4.2508 51.5557 4.2508H47.8067C47.6045 4.2508 47.4072 4.04862 47.4072 3.85126V0.900508C47.4072 0.698336 47.6094 0.500977 47.8067 0.500977H55.3529C55.555 0.500977 55.7523 0.650199 55.7523 0.852372V3.95235H55.7571Z" fill="#E9E5E4"/>
<path d="M68.5539 5.0495V25.7963C68.5539 28.5978 66.3064 30.8458 63.5055 30.8458C60.7045 30.8458 58.457 28.5978 58.457 25.7963V5.0495C58.457 2.24797 60.7045 0 63.5055 0C66.3064 0 68.5539 2.24797 68.5539 5.0495ZM64.9059 5.0495C64.9059 4.29857 64.2562 3.64873 63.5055 3.64873C62.7547 3.64873 62.105 4.29857 62.105 5.0495V25.5459C62.105 26.345 62.7547 26.9467 63.5055 26.9467C64.2562 26.9467 64.9059 26.345 64.9059 25.5459V5.0495Z" fill="#E9E5E4"/>
<path d="M82.2512 29.9508C82.2512 30.153 82.102 30.3503 81.8999 30.3503H78.9497C78.7476 30.3503 78.5984 30.2492 78.5503 29.9989L76.2017 19.3993C76.1536 19.149 75.8023 19.2501 75.8023 19.4474V29.946C75.8023 30.1481 75.6531 30.3455 75.4509 30.3455H72.5537C72.3516 30.3455 72.1543 30.1433 72.1543 29.946V0.852372C72.1543 0.650199 72.3564 0.500977 72.5537 0.500977H75.4509C75.6531 0.500977 75.8023 0.602063 75.8504 0.852372L78.199 11.6542C78.2471 11.8563 78.5984 11.8034 78.5984 11.606V0.852372C78.5984 0.650199 78.8005 0.500977 78.9978 0.500977H81.8469C82.0491 0.500977 82.2464 0.650199 82.2464 0.852372V29.9508H82.2512Z" fill="#E9E5E4"/>
</svg>
