<?xml version="1.0" encoding="UTF-8"?>
<svg id="Capa_1" xmlns="http://www.w3.org/2000/svg" version="1.1" viewBox="0 0 1111.9 120">
  <!-- Generator: Adobe Illustrator 29.5.1, SVG Export Plug-In . SVG Version: 2.1.0 Build 141)  -->
  <defs>
    <style>
      .st0 {
        fill: #48441d;
      }
    </style>
  </defs>
  <g>
    <path class="st0" d="M256.4,3.3c.3-.9.8-1.4,1.6-1.4h11.5c.8,0,1.3.5,1.6,1.4l14.8,113.2v.4c0,.8-.5,1.2-1.4,1.2h-12.3c-.4,0-.7-.1-1.1-.4s-.5-.6-.5-1l-1.4-12.4c0-.4-.2-.7-.5-1s-.7-.4-1.1-.4h-8c-.4,0-.7.1-1.1.4s-.5.6-.5,1l-1.4,12.4c0,.4-.2.7-.5,1s-.7.4-1.1.4h-12.3c-1.2,0-1.6-.5-1.4-1.6l14.8-113.2ZM261.8,88.7h3.9c1.2,0,1.6-.5,1.4-1.6l-2.5-20.4c-.1-.6-.4-1-.8-1s-.6.3-.8,1l-2.5,20.4v.4c0,.8.5,1.2,1.4,1.2Z"/>
    <path class="st0" d="M360.6,116.7c0,.9-.5,1.4-1.4,1.4h-11.5c-.4,0-.7-.2-1.1-.5s-.5-.7-.5-1.1v-59.7c0,.3-.2.4-.7.4s-.7-.1-.7-.4l-9.3,59.9c-.3.9-.8,1.4-1.6,1.4h-11.7c-.8,0-1.3-.5-1.6-1.4l-9.3-59.9c0,.3-.2.4-.7.4s-.7-.1-.7-.4v59.7c0,.4-.1.7-.4,1.1s-.6.5-1,.5h-11.3c-.4,0-.7-.2-1.1-.5s-.5-.7-.5-1.1V3.3c0-.4.2-.7.5-1s.7-.4,1.1-.4h18.7c.8,0,1.3.5,1.6,1.4l9.7,56.2c.1.6.4,1,.8,1s.6-.3.8-1l9.9-56.2c.3-.9.8-1.4,1.6-1.4h18.9c.9,0,1.4.5,1.4,1.4v113.4Z"/>
    <path class="st0" d="M385.5,3.3c.3-.9.8-1.4,1.6-1.4h11.5c.8,0,1.3.5,1.6,1.4l14.8,113.2v.4c0,.8-.5,1.2-1.4,1.2h-12.3c-.4,0-.7-.1-1.1-.4s-.5-.6-.5-1l-1.4-12.4c0-.4-.2-.7-.5-1s-.7-.4-1.1-.4h-8c-.4,0-.7.1-1.1.4s-.5.6-.5,1l-1.4,12.4c0,.4-.2.7-.5,1s-.7.4-1.1.4h-12.3c-1.2,0-1.6-.5-1.4-1.6l14.8-113.2ZM391,88.7h3.9c1.2,0,1.6-.5,1.4-1.6l-2.5-20.4c-.1-.6-.4-1-.8-1s-.6.3-.8,1l-2.5,20.4v.4c0,.8.5,1.2,1.4,1.2Z"/>
    <path class="st0" d="M436.9,101.9v.4c0,.8.5,1.2,1.4,1.2h14.8c.4,0,.7.2,1.1.5s.5.7.5,1.1v11.5c0,.4-.1.7-.4,1.1-.3.3-.6.5-1,.5h-29.6c-.4,0-.7-.2-1.1-.5s-.5-.7-.5-1.1v-12.1c0-.6,0-1.2.2-1.8l17.1-84.6v-.6c0-.6-.4-1-1.2-1h-14.6c-.4,0-.7-.2-1.1-.5s-.5-.7-.5-1.1V3.5c0-.4.2-.7.5-1.1s.7-.5,1.1-.5h29.4c.4,0,.7.1,1.1.4s.5.6.5,1v12.1c0,.6,0,1.2-.2,1.8l-17.5,84.8Z"/>
    <path class="st0" d="M504.7,19.6v80.7c0,5.4-1.9,10.1-5.7,13.9-3.8,3.8-8.5,5.7-13.9,5.7s-10.1-1.9-13.9-5.7-5.7-8.5-5.7-13.9V19.6c0-5.4,1.9-10.1,5.7-13.9,3.8-3.8,8.5-5.7,13.9-5.7s10.1,1.9,13.9,5.7,5.7,8.5,5.7,13.9ZM485.1,14.2c-1.4,0-2.7.6-3.8,1.7-1.1,1.1-1.7,2.4-1.7,3.8v79.7c0,1.6.6,2.9,1.7,3.9,1.1,1,2.4,1.6,3.8,1.6s2.7-.5,3.8-1.6c1.1-1,1.7-2.3,1.7-3.9V19.6c0-1.4-.6-2.7-1.7-3.8-1.1-1.1-2.4-1.7-3.8-1.7Z"/>
    <path class="st0" d="M556.5,118.1h-11.5c-.9,0-1.4-.5-1.6-1.4l-9.1-41.2c-.1-.5-.4-.7-.9-.6-.5.1-.7.4-.7.8v40.8c0,.4-.1.7-.4,1.1s-.6.5-1,.5h-11.3c-.4,0-.7-.2-1.1-.5s-.5-.7-.5-1.1V3.3c0-.4.2-.7.5-1s.7-.4,1.1-.4h11.3c.9,0,1.4.5,1.6,1.4l9.1,42c.1.4.4.6.9.5s.7-.3.7-.7V3.3c0-.4.2-.7.5-1s.7-.4,1.1-.4h11.1c.4,0,.7.1,1.1.4s.5.6.5,1v113.2c0,.4-.1.7-.4,1.1s-.6.5-1,.5Z"/>
    <path class="st0" d="M627.6,3.3v97c0,5.4-1.9,10.1-5.7,13.9-3.8,3.8-8.5,5.7-13.9,5.7s-10.1-1.9-13.9-5.7c-3.8-3.8-5.7-8.5-5.7-13.9V3.5c0-.4.2-.7.5-1.1s.7-.5,1.1-.5h11.1c.4,0,.7.1,1.1.4s.5.6.5,1v95.9c0,1.4.5,2.7,1.6,3.9,1,1.2,2.3,1.8,3.7,1.8s2.9-.5,4-1.6c1.1-1,1.7-2.3,1.7-3.9V3.3c0-.4.2-.7.5-1s.7-.4,1.1-.4h11.1c.4,0,.7.1,1.1.4s.5.6.5,1Z"/>
    <path class="st0" d="M679.9,118.1h-11.5c-.9,0-1.4-.5-1.6-1.4l-9.1-41.2c-.1-.5-.4-.7-.9-.6-.5.1-.7.4-.7.8v40.8c0,.4-.1.7-.4,1.1s-.6.5-1,.5h-11.3c-.4,0-.7-.2-1.1-.5s-.5-.7-.5-1.1V3.3c0-.4.2-.7.5-1s.7-.4,1.1-.4h11.3c.9,0,1.4.5,1.6,1.4l9.1,42c.1.4.4.6.9.5s.7-.3.7-.7V3.3c0-.4.2-.7.5-1s.7-.4,1.1-.4h11.1c.4,0,.7.1,1.1.4s.5.6.5,1v113.2c0,.4-.1.7-.4,1.1s-.6.5-1,.5Z"/>
    <path class="st0" d="M735.6,19.8v80.3c0,4.9-1.8,9.1-5.3,12.6-3.5,3.5-7.7,5.3-12.6,5.3h-19.8c-1.3,0-1.9-.6-1.9-1.9V3.9c0-1.3.6-1.9,1.9-1.9h19.8c4.9,0,9.1,1.8,12.6,5.3,3.5,3.5,5.3,7.7,5.3,12.6ZM712.6,16.3c-1.3,0-1.9.6-1.9,1.9v86.2c0,1.3.6,1.9,1.9,1.9h2.9c3.9,0,5.8-1.9,5.8-5.6V22c0-3.8-1.9-5.6-5.8-5.6h-2.9Z"/>
    <path class="st0" d="M750.9,1.9h29.4c.4,0,.7.1,1.1.4s.5.6.5,1v11.3c0,.4-.1.7-.4,1.1s-.6.5-1,.5h-15.2c-.9,0-1.4.5-1.4,1.4v40.6c0,.4.1.7.4,1.1.3.3.6.5,1,.5h11.3c.4,0,.7.1,1.1.4.3.3.5.6.5,1v11.5c0,.9-.5,1.4-1.4,1.4h-11.5c-.4,0-.7.2-1,.5s-.4.7-.4,1.1v27c0,.9.5,1.4,1.4,1.4h15.2c.4,0,.7.2,1,.5.3.3.4.7.4,1.1v11.3c0,.4-.2.7-.5,1s-.7.4-1.1.4h-29.4c-.4,0-.7-.1-1.1-.4s-.5-.6-.5-1V3.3c0-.4.2-.7.5-1s.7-.4,1.1-.4Z"/>
    <path class="st0" d="M828.5,65.2c1.3,1.7,2.4,4.2,3.2,7.6.8,3.4,1.3,6.2,1.3,8.6v35.2c0,.4-.2.7-.5,1.1s-.7.5-1.1.5h-11.3c-.9,0-1.4-.5-1.4-1.4v-35.4c-.1-2.9-1.1-5.7-2.9-8.7-1.8-2.9-4-4.6-6.4-5.2h-.4c-.8,0-1.2.5-1.2,1.4v47.7c0,.4-.1.7-.4,1.1s-.6.5-1,.5h-11.3c-.4,0-.7-.2-1.1-.5s-.5-.7-.5-1.1V3.3c0-.4.2-.7.5-1s.7-.4,1.1-.4h23.5c3.8,0,7.1,1.4,9.9,4.2,2.9,2.8,4.3,6.2,4.3,10.2v36.6c0,4-1.4,7.5-4.3,10.3-.6.5-.7,1.2-.2,1.9ZM812.8,14.6h-3.3c-.4,0-.7.2-1.1.5-.3.3-.5.7-.5,1.1v38.9c0,.4.2.7.5,1.1.3.3.7.5,1.1.5h3.3c1.7,0,3.1-.6,4.2-1.8,1.1-1.2,1.7-2.6,1.8-4.3v-30.1c0-1.6-.6-2.9-1.8-4.1-1.2-1.2-2.6-1.8-4.3-1.8Z"/>
    <path class="st0" d="M844.7,1.9h11.5c.4,0,.7.1,1.1.4.3.3.5.6.5,1l4.3,49.8h1.6l4.3-49.8c0-.4.2-.7.5-1s.7-.4,1.1-.4h11.7c.4,0,.7.1,1.1.4.3.3.5.6.5,1l4.3,49.8h1.6l4.3-49.8c0-.4.2-.7.5-1s.7-.4,1.1-.4h11.5c1.2,0,1.6.5,1.4,1.6l-12.3,113.2c0,.4-.2.7-.5,1s-.7.4-1.1.4h-11.3c-.4,0-.7-.1-1.1-.4s-.5-.6-.5-1l-5.3-48.4-5.3,48.4c0,.4-.2.7-.5,1s-.7.4-1.1.4h-11.3c-.4,0-.7-.1-1.1-.4s-.5-.6-.5-1l-12.3-113.2v-.4c0-.8.5-1.2,1.4-1.2Z"/>
    <path class="st0" d="M955.7,19.6v80.7c0,5.4-1.9,10.1-5.7,13.9-3.8,3.8-8.5,5.7-13.9,5.7s-10.1-1.9-13.9-5.7c-3.8-3.8-5.7-8.5-5.7-13.9V19.6c0-5.4,1.9-10.1,5.7-13.9,3.8-3.8,8.5-5.7,13.9-5.7s10.1,1.9,13.9,5.7,5.7,8.5,5.7,13.9ZM936.1,14.2c-1.4,0-2.7.6-3.8,1.7-1.1,1.1-1.7,2.4-1.7,3.8v79.7c0,1.6.6,2.9,1.7,3.9,1.1,1,2.4,1.6,3.8,1.6s2.7-.5,3.8-1.6c1.1-1,1.7-2.3,1.7-3.9V19.6c0-1.4-.6-2.7-1.7-3.8-1.1-1.1-2.4-1.7-3.8-1.7Z"/>
    <path class="st0" d="M1004.3,65.2c1.3,1.7,2.4,4.2,3.2,7.6.8,3.4,1.3,6.2,1.3,8.6v35.2c0,.4-.2.7-.5,1.1s-.7.5-1.1.5h-11.3c-.9,0-1.4-.5-1.4-1.4v-35.4c-.1-2.9-1.1-5.7-2.9-8.7-1.8-2.9-4-4.6-6.4-5.2h-.4c-.8,0-1.2.5-1.2,1.4v47.7c0,.4-.1.7-.4,1.1s-.6.5-1,.5h-11.3c-.4,0-.7-.2-1.1-.5s-.5-.7-.5-1.1V3.3c0-.4.2-.7.5-1s.7-.4,1.1-.4h23.5c3.8,0,7.1,1.4,9.9,4.2,2.9,2.8,4.3,6.2,4.3,10.2v36.6c0,4-1.4,7.5-4.3,10.3-.6.5-.7,1.2-.2,1.9ZM988.6,14.6h-3.3c-.4,0-.7.2-1.1.5-.3.3-.5.7-.5,1.1v38.9c0,.4.2.7.5,1.1.3.3.7.5,1.1.5h3.3c1.7,0,3.1-.6,4.2-1.8,1.1-1.2,1.7-2.6,1.8-4.3v-30.1c0-1.6-.6-2.9-1.8-4.1-1.2-1.2-2.6-1.8-4.3-1.8Z"/>
    <path class="st0" d="M1022.8,116.5V3.3c0-.4.2-.7.5-1s.7-.4,1.1-.4h11.1c.4,0,.7.1,1.1.4s.5.6.5,1v98.6c0,.4.2.7.5,1,.3.3.7.4,1.1.4h22.2c.9,0,1.4.5,1.4,1.4v12.1c0,.9-.5,1.4-1.4,1.4h-36.4c-.4,0-.7-.2-1.1-.5s-.5-.7-.5-1.1Z"/>
    <path class="st0" d="M1111.9,19.8v80.3c0,4.9-1.8,9.1-5.3,12.6-3.5,3.5-7.7,5.3-12.6,5.3h-19.8c-1.3,0-1.9-.6-1.9-1.9V3.9c0-1.3.6-1.9,1.9-1.9h19.8c4.9,0,9.1,1.8,12.6,5.3,3.5,3.5,5.3,7.7,5.3,12.6ZM1088.9,16.3c-1.3,0-1.9.6-1.9,1.9v86.2c0,1.3.6,1.9,1.9,1.9h2.9c3.9,0,5.8-1.9,5.8-5.6V22c0-3.8-1.9-5.6-5.8-5.6h-2.9Z"/>
  </g>
  <g>
    <path class="st0" d="M193.5,1.7c-10.4,11.3-17.3,24.6-20.6,38.7-.4,1.7-2.8,1.7-3.2,0-3.4-14.5-10.6-28.4-21.7-39.9-.6-.7-1.7-.7-2.3,0-11.1,11.5-18.3,25.3-21.7,39.9-.4,1.7-2.8,1.7-3.2,0-3.4-14.5-10.6-28.4-21.7-39.9-.6-.7-1.7-.7-2.3,0-11.1,11.5-18.3,25.3-21.7,39.9-.4,1.7-2.8,1.7-3.2,0-3.4-14.5-10.6-28.4-21.7-39.9-.6-.7-1.7-.7-2.3,0-11.1,11.5-18.3,25.3-21.7,39.9-.4,1.7-2.8,1.7-3.2,0C19.6,26.3,12.7,12.9,2.3,1.7c-.8-.9-2.3-.3-2.3.9v114.9c0,1.2,1.5,1.8,2.3.9,10.4-11.3,17.3-24.6,20.6-38.7.4-1.7,2.8-1.7,3.2,0,3.4,14.5,10.6,28.4,21.7,39.9.6.7,1.7.7,2.3,0,11.1-11.5,18.3-25.3,21.7-39.9.4-1.7,2.8-1.7,3.2,0,3.4,14.5,10.6,28.4,21.7,39.9.6.7,1.7.7,2.3,0,11.1-11.5,18.3-25.3,21.7-39.9.4-1.7,2.8-1.7,3.2,0,3.4,14.5,10.6,28.4,21.7,39.9.6.7,1.7.7,2.3,0,11.1-11.5,18.3-25.3,21.7-39.9.4-1.7,2.8-1.7,3.2,0,3.3,14.1,10.2,27.4,20.6,38.7.8.9,2.3.3,2.3-.9V2.6c0-1.2-1.5-1.8-2.3-.9ZM30.1,52.6c14.5-6.3,31.3.4,37.6,14.8-14.5,6.3-31.3-.4-37.6-14.8ZM128,67.4c6.3-14.5,23.1-21.1,37.6-14.8-6.3,14.5-23.1,21.1-37.6,14.8Z"/>
    <path class="st0" d="M145.2,55.8c-2.3.9-3.4,3.5-2.5,5.8.9,2.3,3.5,3.4,5.8,2.5,2.3-.9,3.4-3.5,2.5-5.8-.9-2.3-3.5-3.4-5.8-2.5Z"/>
    <path class="st0" d="M50.6,55.8c-2.3-.9-4.9.2-5.8,2.5-.9,2.3.2,4.9,2.5,5.8,2.3.9,4.9-.2,5.8-2.5.9-2.3-.2-4.9-2.5-5.8Z"/>
  </g>
</svg>