<svg width="35" height="35" viewBox="0 0 35 35" fill="none" xmlns="http://www.w3.org/2000/svg">
<g opacity="0.5">
<circle cx="17.5" cy="17.5" r="17" stroke="white"/>
<path d="M15.5264 9C19.1309 9 22.0534 11.9219 22.0537 15.5264C22.0537 17.0407 21.5364 18.4336 20.6709 19.541L24.9824 23.8525L25.0371 23.9131C25.2935 24.2273 25.2754 24.6905 24.9824 24.9834C24.6895 25.2759 24.2262 25.2944 23.9121 25.0381L23.8516 24.9834L19.54 20.6719C18.4327 21.5368 17.0402 22.0537 15.5264 22.0537C11.9219 22.0534 9 19.1309 9 15.5264C9.00035 11.9221 11.9221 9.00035 15.5264 9ZM15.5264 10.1992C12.5849 10.1996 10.1996 12.5849 10.1992 15.5264C10.1992 18.4682 12.5846 20.8532 15.5264 20.8535C18.4684 20.8535 20.8535 18.4684 20.8535 15.5264C20.8532 12.5846 18.4682 10.1992 15.5264 10.1992Z" fill="#E9E5E4"/>
</g>
</svg>
