<svg width="17" height="17" viewBox="0 0 17 17" fill="none" xmlns="http://www.w3.org/2000/svg">
<path d="M6.52637 0C10.1309 0 13.0534 2.92189 13.0537 6.52637C13.0537 8.04073 12.5364 9.43355 11.6709 10.541L15.9824 14.8525L16.0371 14.9131C16.2935 15.2273 16.2754 15.6905 15.9824 15.9834C15.6895 16.2759 15.2262 16.2944 14.9121 16.0381L14.8516 15.9834L10.54 11.6719C9.43275 12.5368 8.04023 13.0537 6.52637 13.0537C2.92189 13.0534 0 10.1309 0 6.52637C0.000354577 2.92211 2.92211 0.000354835 6.52637 0ZM6.52637 1.19922C3.58485 1.19957 1.19957 3.58485 1.19922 6.52637C1.19922 9.46818 3.58464 11.8532 6.52637 11.8535C9.4684 11.8535 11.8535 9.4684 11.8535 6.52637C11.8532 3.58464 9.46818 1.19922 6.52637 1.19922Z" fill="#48441D"/>
</svg>
